/* XPM */
static char *_757fd4c161c49eede693616c628a169qvXEOGGxTlZkI8dZ[] = {
/* columns rows colors chars-per-pixel */
"50 61 151 2 ",
"   c black",
".  c #110000",
"X  c #181818",
"o  c #200000",
"O  c #2D0000",
"+  c #290C00",
"@  c #2B1C16",
"#  c #001920",
"$  c #353535",
"%  c #541A00",
"&  c #452900",
"*  c #533200",
"=  c #4C2A13",
"-  c #663E00",
";  c #7F3A00",
":  c #693312",
">  c #6E3716",
",  c #783911",
"<  c #472828",
"1  c #443327",
"2  c #46312A",
"3  c #45362C",
"4  c #573931",
"5  c #754800",
"6  c #5B463B",
"7  c #614224",
"8  c #6F493D",
"9  c #003871",
"0  c #434343",
"q  c #7A5C46",
"w  c gray39",
"e  c #831F00",
"r  c #883000",
"t  c #8D3900",
"y  c #834200",
"u  c #874A00",
"i  c #94430D",
"p  c #8D5500",
"a  c #905300",
"s  c #905800",
"d  c #9A5E00",
"f  c #925410",
"g  c #A44700",
"h  c #9B671E",
"j  c #A06809",
"k  c #AC750E",
"l  c #8C4F29",
"z  c #974921",
"x  c #B45E25",
"c  c #A55A33",
"v  c #946127",
"b  c #AB6B35",
"n  c #B86938",
"m  c #B87931",
"M  c #895642",
"N  c #9E7245",
"B  c #926554",
"V  c #A56546",
"C  c #B46844",
"Z  c #B96C49",
"A  c #A27A55",
"S  c #B7755C",
"D  c #8E7168",
"F  c #A07D66",
"G  c #A3746F",
"H  c #B98112",
"J  c #B1833D",
"K  c #BB8B38",
"L  c #C98800",
"P  c #CB8F00",
"I  c #D19708",
"U  c #C48D15",
"Y  c #D09818",
"T  c #D39B19",
"R  c #D79F1A",
"E  c #C5922F",
"W  c #D6A231",
"Q  c #BE884F",
"!  c #BA9058",
"~  c #B19072",
"^  c #B6987C",
"/  c #C19852",
"(  c #DCAB40",
")  c #DFB14D",
"_  c #D7AA58",
"`  c #E5BA5C",
"'  c #C78965",
"]  c #CF8669",
"[  c #D98865",
"{  c #D29571",
"}  c #EA9676",
"|  c #F29A79",
" . c #D9B46A",
".. c #C8A677",
"X. c #E9C066",
"o. c #EDC770",
"O. c #E7C578",
"+. c #F1CE79",
"@. c #004F9E",
"#. c #0069DF",
"$. c #1289FF",
"%. c #5DABFE",
"&. c gray54",
"*. c #8D8D8D",
"=. c #A18E82",
"-. c #B29286",
";. c #B99180",
":. c #B2B196",
">. c #B08FB1",
",. c gray64",
"<. c #B7B7B7",
"1. c #CEA082",
"2. c #C1A791",
"3. c #E4AB87",
"4. c #F2A684",
"5. c #FBAE97",
"6. c #F5B592",
"7. c #CFBDAD",
"8. c #DDBCAD",
"9. c #FABBAE",
"0. c #F8D887",
"q. c #F8D888",
"w. c #FADB8C",
"e. c #FBDC8E",
"r. c #E3C594",
"t. c #F9C09B",
"y. c #F9C19D",
"u. c #F8DE98",
"i. c #D2C1B3",
"p. c #EAD3AF",
"a. c #FBCDB0",
"s. c #FAD3B9",
"d. c #F8E1A1",
"f. c #F8EAB8",
"g. c #BAD8FE",
"h. c #CBCBCB",
"j. c gray85",
"k. c #EFDDC2",
"l. c #E1D6CC",
"z. c #FBDCC8",
"x. c #FBDDC9",
"c. c #F8EDC0",
"v. c #F8F1CB",
"b. c #F3E7D5",
"n. c #F8F4D2",
"m. c #C5CBE0",
"M. c #E2E2E2",
"N. c #ECECEC",
"B. c #EDF7FF",
"V. c gray96",
"C. c white",
/* pixels */
"C.C.C.C.C.C.C.C.C.C.C.C.C.C.C.C.C.C.V.p.p.p.p.p.7.7.7.7.7.7.7.C.C.C.C.C.C.C.C.C.C.C.C.C.C.C.C.C.C.C.",
"C.C.C.C.C.C.C.C.C.C.C.C.C.C.C.V.V.C.k.P I I I I p p a a a a N C.V.V.V.C.C.C.C.C.C.C.C.C.C.C.C.C.C.C.",
"C.C.C.C.C.C.C.C.C.C.C.C.C.C.k.L P P I T Y Y I I I I I I I I P ; ; ; v C.C.C.C.C.C.C.C.C.C.C.C.C.C.C.",
"C.C.C.C.C.C.C.C.C.C.C.C._ _ ) I Y Y Y Y I ` +.+.+.+.+.+.+.+.+.O.O.) U A N 7.C.C.C.C.C.C.C.C.C.C.C.C.",
"C.C.C.C.C.C.C.C.C.C.b.p.P ( ) ) ` W Y Y ` +.w.q.q.q.q.q.q.q.q.q.d.q.) / k ! i.C.C.C.C.C.C.C.C.C.C.C.",
"C.C.C.C.C.C.C.C.C.C.p.P T +.e.w.w.) Y T w.q.q.q.q.q.q.q.q.q.q.q.c.f.w.e.( H p C.C.C.C.C.C.C.C.C.C.C.",
"C.C.C.C.C.C.C.C.C.E ( w.w.q.q.q.q.w.w.w.L X.w.q.q.q.q.q.q.q.q.q.+.d.v.+.e.X.I r M.C.C.C.C.C.C.C.C.C.",
"C.C.C.C.C.C.C.C._ o.+.q.q.q.q.q.q.q.q.q.+.) ) w.q.q.q.q.q.q.q.0.f.c.v.c.u.+.o.L ! 7.C.C.C.C.C.C.C.C.",
"C.C.C.C.C.C.b.p.P ` +.0.q.q.q.q.q.q.q.q.w.X.) X.q.q.q.q.q.0.w.d.n.n.v.f.e.q.q.) j ^ C.C.C.C.C.C.C.C.",
"C.C.C.C.C.C.p.P T I ) w.q.q.q.q.q.q.q.q.q.w.o.P q.q.q.q.q.0.u.v.C.b.c.+.0.q.q.e.J ^ C.C.C.C.C.C.C.C.",
"C.C.C.C.C.W ) w.w.w.w.q.w.q.q.q.q.q.q.q.q.q.0.w.P X.w.q.q.f.n.v.v.d.q.q.q.q.q.w.( H ; C.C.C.C.C.C.C.",
"C.C.C.V. .o.u.f.q.0.0.q.W +.w.q.0.0.0.0.q.d.f.w.I X.w.q.q.w.u.u.u.e.q.q.q.q.q.q.+._ y C.C.C.C.C.C.C.",
"C.C.C.b.L u.f.c.q.d.u.0.( X.+.0.d.d.d.d.d.c.f.0.) ` o.0.d.d.d.d.w.q.q.q.o.+.q.q.w. .j l.V.C.C.C.C.C.",
"C.C.C.V.L c.v.c.q.c.f.0.w.W ) q.n.v.v.v.v.v.f.q.w.) W q.v.v.v.n.u.q.q.w.W ) w.q.w.X.I ; l.C.C.C.C.C.",
"C.C.r.I w.c.v.c.L V.C.v.q.( ) e.+.f.n.C.C.n.v.n.w.) W w.0.0.0.0.q.q.q.q.w.X.P w.w.X.I y l.C.C.C.C.C.",
"C.C.r.T 0.c.f.u.P v.n.v.q.K H ( w.u.f.n.n.n.c.u.w.) T ( ( o.w.q.q.q.q.q.w.X.I ( +.o.I y l.C.C.C.C.C.",
"C.C.r.R q.f.u.X.P d.f.f.0.J k I o.X.q.f.d.f.d.0.w.) P H P ) o.0.q.q.q.q.e.X.I I ` ` I y l.C.C.C.C.C.",
"C.C.r.T w.0.` P I +.0.0.e.J k R I I ( w.L X.w.q.w.) U u T I W w.e.q.q.q.q.X.I Y Y Y T y l.C.C.C.C.C.",
"C.C.2.h w.w.` T I +.q.0.P j a u t U ) w.I j J w.w.) U u Y Y T I P ` e.e.e.X.I Y Y Y T y l.C.C.C.C.C.",
"C.C.2.j w.w.` I I +.w.0.I j A 8.8./ k ) T k J w.w.) U u Y Y Y Y T W ` W q.X.I T Y Y T y l.C.C.C.C.C.",
"C.C.2.j w.w.` U I +.+.o.U m ' 8.8.N d U T k J w.e.) U u Y U U U U U T I X.) Y Y Y Y T y l.C.C.C.C.C.",
"C.C.2.h e.e./ p I 0.X.P u [ [ r r t y y R j J w.e.) U u T k p p p k T T I Y Y Y Y Y T y l.C.C.C.C.C.",
"C.C.2.a I 0./ s T Y T T u [ | | y.y.y.a.y  .e.e.e.) U s p f z z z f s T Y Y Y Y Y Y T y l.C.C.C.C.C.",
"C.C.M.7.d e._ k j T U k 3.Z C Z ' ' ' { u  .+.( e.) k & f c c [ c c f k U Y Y Y Y Y T y l.C.C.C.C.C.",
"C.C.C.N.; o.) T u H K N a.C z , , z z c u  .o.P w.) H   z c [ 6.' C z p U T Y Y Y Y T d 7.N.C.C.C.C.",
"C.C.C.N.r P T Y p p ' y.y.C ,     , i i a  .+.P w.) U   t Z 4.x.a.{ i p U T Y Y Y Y T T d ~ C.C.C.C.",
"C.C.C.C.C.v k Y p n { y.y.4.>.$.  =.:.:.u  .+.P e./ 5   9.4.4.x.a.F   s U T T Y Y Y T T j ~ C.C.C.C.",
"C.C.C.C.C.l...j p n { y.y.4.G @.  <.l.:.u  .+.P ) J 7 ~ t.4.} s.{ M   s j k T T Y Y T T j ~ C.C.C.C.",
"C.C.C.C.C.C.7.A ~ C { a.a.4.S   9 j.N.:.u  .+.I U - 6 y.t.4.} 6.V > & s p k T Y Y Y Y T j ~ C.C.C.C.",
"C.C.C.C.C.C.C.C.C.' 1.x.x.4.V   #.g.N.:.u  .+.I d = $ y.t.4.} n . * d s p k T Y Y Y Y T j ~ C.C.C.C.",
"C.C.C.C.C.C.C.V.x 3.a.x.x.y.<.%.%.B.b.y.u H T R   ~ y.y.6.~     5 s s p p k T Y Y Y Y T j ^ C.C.C.C.",
"C.C.C.C.C.C.C.V.g 6.a.x.x.s.l.m.m.l.s.y.u H U H   ~ y.y.6.S * 5 p s s p p k T Y Y Y Y Y U J 2.C.C.C.",
"C.C.C.C.C.C.C.V.g 3.s.x.x.x.x.x.s.y.t.y.u H U 5 1 1.y.y.} n s s s s s s p k T Y Y Y Y Y T U ; C.C.C.",
"C.C.C.C.C.C.C.V.g } 4.6.x.x.x.x.t.y.y.y.a U H   y.y.y.y.} Z p s s s s s p k T Y Y Y Y Y Y U y C.C.C.",
"C.C.C.C.C.C.C.C.C.0 M 4.y.y.y.y.y.y.y.y.    q y.y.y.t.} } Z p s s s s s p k T Y Y Y Y Y Y U y C.C.C.",
"C.C.C.C.C.C.C.C.C.<.=.M { 4.6.y.y.y.y.y.F F 1.y.4.4.4.} } Z p s s s s s p k T Y Y Y Y Y Y U y C.C.C.",
"C.C.C.C.C.C.C.C.C.C.<.$ c ] { t.6.t.t.t.t.t.t.t.} } } } } b p s s s s s p k T Y Y Y Y Y Y U y N.V.C.",
"C.C.C.C.C.C.C.C.C.C.C.C.    % n n [ | | | | | | | | } n n f s s s s s s p k T Y Y Y Y Y Y U p   <.C.",
"C.C.C.C.C.C.C.C.C.C.C.C.N.V.<.  @ @ @ @ @ @ @ @ @ @ + . . - s s s s s s p k T T Y Y Y Y T U p   h.C.",
"C.C.C.C.C.C.C.C.C.C.C.C.C.C.M.,.% M B F F B M M F =.=.=.B l f s s s s s p k T T Y Y Y T T U s   h.C.",
"C.C.C.C.C.C.C.C.C.C.C.C.C.C.C.V.g [ 4.y.y.4.| | t.s.x.x.4.Z z s s s s s p k T Y Y Y U T T k s   h.C.",
"C.C.C.C.C.C.C.C.C.C.C.C.C.C.i.e | 6.y.y.y.y.6.} | a.x.x.y.' i s s s s s p k T Y T H u R j p d   <.C.",
"C.C.C.C.C.C.C.C.C.C.C.C.C.C.i.t t.y.y.y.y.y.6.} c ] 4.y.y.4.[ i p s s s p k T Y T H p T k 5   N.V.C.",
"C.C.C.C.C.C.C.C.C.C.C.C.C.C.i.t 2 6.y.y.y.y.t.6.c C ] y.y.4.[ z p s s p p k T T H k p H j 5   C.C.C.",
"C.C.C.C.C.C.C.C.C.C.C.C.C.C.i.t < 2 y.y.y.y.y.y.n z C y.y.4.[ z p p p s p k T T j p s p p -   C.C.C.",
"C.C.C.C.C.C.C.C.C.C.C.C.C.C.i.e a.3 y.y.y.y.y.y.} Z C y.y.4.[ z s *   d p k T T j s d d o w C.C.C.C.",
"C.C.C.C.C.C.C.C.C.C.C.C.C.C.V.N.c [ 4.} y.y.y.y.| Z C y.y.4.[ i O *.M.u H T T j d 5 .   <.N.C.C.C.C.",
"C.C.C.C.C.C.C.C.C.C.C.C.C.C.C.C.r [ 4.4.y.y.y.y.[ Z ] a.a.6.[ t *.,.<.u k H H * - q ,.*.M.C.C.C.C.C.",
"C.C.C.C.C.C.C.C.C.C.C.C.C.C.C.C.r [ 4.y.y.y.y.y.i [ 4.x.x.y.[ r C.,.  s p p p #   *.C.C.C.C.C.C.C.C.",
"C.C.C.C.C.C.C.C.C.C.C.C.C.C.C.C.r [ 4.y.y.y.6.} z [ 4.x.x.9.[ r V.,.          C.C.C.C.C.C.C.C.C.C.C.",
"C.C.C.C.C.C.C.C.C.C.C.C.C.C.C.C.e [ 4.y.y.y.6.| z c ' a.a.6.[   N.V.j.j.j.j.j.C.C.C.C.C.C.C.C.C.C.C.",
"C.C.C.C.C.C.C.C.C.C.C.C.C.C.C.C.-.] [ 6.6.3.{ [ : c Z 6.6.{ M   N.C.C.C.C.C.C.C.C.C.C.C.C.C.C.C.C.C.",
"C.C.C.C.C.C.C.C.C.C.C.C.C.C.C.C.C.;.c } } C z n   l Z } | M     N.C.C.C.C.C.C.C.C.C.C.C.C.C.C.C.C.C.",
"C.C.C.C.C.C.C.C.C.C.C.C.C.C.C.C.C.^ i i i [ 4.y.y.q       > n   N.C.C.C.C.C.C.C.C.C.C.C.C.C.C.C.C.C.",
"C.C.C.C.C.C.C.C.C.C.C.C.C.C.C.C.C.;.i c c c ' x.s.8.1.] c > 6 j.C.C.C.C.C.C.C.C.C.C.C.C.C.C.C.C.,.w ",
"C.C.C.C.C.C.C.C.C.C.C.C.C.C.C.C.C.;.i n n z S x.x.a.6.[ l D ,.C.C.C.C.C.C.C.C.C.C.C.C.C.C.C.C.C.&.X ",
"C.C.C.C.C.C.C.C.C.C.C.C.C.C.C.C.C.;.t n n z S x.x.a.3.x   <.C.C.C.C.C.C.C.C.C.C.C.C.C.C.C.C.C.C.&.w ",
"C.C.C.C.C.C.C.C.C.C.C.C.C.C.C.C.C.C.j.  n n l   y.y.t.| . ,.C.C.C.C.C.C.C.C.C.C.C.C.C.C.C.C.C.C.&.w ",
"C.C.C.C.C.C.C.C.C.C.C.C.C.C.C.C.C.,.D l n > 7 l 4.4.4.| . ,.C.C.C.C.C.C.C.C.C.C.C.C.C.C.C.C.C.C.&.w ",
"C.C.C.C.C.C.C.C.C.C.C.C.C.C.C.C.C.w = [ n = 4 [ 4.4.4.| . ,.C.C.C.C.C.C.C.C.C.C.C.C.C.C.C.C.C.C.&.0 ",
"C.C.C.C.C.C.C.C.C.C.C.C.C.C.C.C.C.w 8 | n = 6 y.y.y.t.| . ,.C.C.C.C.C.C.C.C.C.C.C.C.C.C.C.C.C.C.&.  "
};
