/* XPM */
static char *afc3bb049bd74600df92f553fd001127nii7mnRfR98mDUKO[] = {
/* columns rows colors chars-per-pixel */
"50 61 149 2 ",
"   c black",
".  c #110000",
"X  c #181818",
"o  c #2D0000",
"O  c #290C00",
"+  c #2B1C16",
"@  c #001920",
"#  c #353535",
"$  c #541A00",
"%  c #452900",
"&  c #533200",
"*  c #4C2A13",
"=  c #663E00",
"-  c #7F3A00",
";  c #693312",
":  c #6E3716",
">  c #783911",
",  c #472828",
"<  c #443327",
"1  c #45362C",
"2  c #573931",
"3  c #754800",
"4  c #5B463B",
"5  c #614224",
"6  c #6F493D",
"7  c #003871",
"8  c #434343",
"9  c #7A5C46",
"0  c gray39",
"q  c #831F00",
"w  c #883000",
"e  c #8D3900",
"r  c #834200",
"t  c #874A00",
"y  c #94430D",
"u  c #8D5500",
"i  c #905300",
"p  c #905800",
"a  c #9A5E00",
"s  c #925410",
"d  c #A44700",
"f  c #9B671E",
"g  c #A06809",
"h  c #AC750E",
"j  c #8C4F29",
"k  c #974921",
"l  c #B45E25",
"z  c #A55A33",
"x  c #946127",
"c  c #AB6B35",
"v  c #B86938",
"b  c #B87931",
"n  c #895642",
"m  c #9E7245",
"M  c #926554",
"N  c #A56546",
"B  c #B46844",
"V  c #B96C49",
"C  c #A27A55",
"Z  c #B7755C",
"A  c #8E7168",
"S  c #A07D66",
"D  c #A3746F",
"F  c #B98112",
"G  c #B1833D",
"H  c #BB8B38",
"J  c #C98800",
"K  c #CB8F00",
"L  c #D19708",
"P  c #C48D15",
"I  c #D09818",
"U  c #D39B19",
"Y  c #D79F1A",
"T  c #C5922F",
"R  c #D6A231",
"E  c #BA9058",
"W  c #B19072",
"Q  c #B6987C",
"!  c #C19852",
"~  c #DCAB40",
"^  c #DFB14D",
"/  c #D7AA58",
"(  c #E5BA5C",
")  c #C78965",
"_  c #CF8669",
"`  c #D98865",
"'  c #D29571",
"]  c #EA9676",
"[  c #F29A79",
"{  c #D9B46A",
"}  c #C8A677",
"|  c #E9C066",
" . c #EDC770",
".. c #E7C578",
"X. c #F1CE79",
"o. c #004F9E",
"O. c #0069DF",
"+. c #1289FF",
"@. c #5DABFE",
"#. c gray54",
"$. c #8D8D8D",
"%. c #A18E82",
"&. c #B29286",
"*. c #B99180",
"=. c #B2B196",
"-. c #B08FB1",
";. c #A0A0A0",
":. c gray64",
">. c #B7B7B7",
",. c #CEA082",
"<. c #C1A791",
"1. c #E4AB87",
"2. c #F2A684",
"3. c #FBAE97",
"4. c #F5B592",
"5. c #CFBDAD",
"6. c #DDBCAD",
"7. c #FABBAE",
"8. c #F8D887",
"9. c #F8D888",
"0. c #FADB8C",
"q. c #FBDC8E",
"w. c #E3C594",
"e. c #F9C09B",
"r. c #F9C19D",
"t. c #F8DE98",
"y. c #D2C1B3",
"u. c #EAD3AF",
"i. c #FBCDB0",
"p. c #FAD3B9",
"a. c #F8E1A1",
"s. c #F8EAB8",
"d. c #BAD8FE",
"f. c #CBCBCB",
"g. c gray85",
"h. c #EFDDC2",
"j. c #E1D6CC",
"k. c #FBDCC8",
"l. c #FBDDC9",
"z. c #F8EDC0",
"x. c #F8F1CB",
"c. c #F3E7D5",
"v. c #F8F4D2",
"b. c #C5CBE0",
"n. c #E2E2E2",
"m. c #ECECEC",
"M. c #EDF7FF",
"N. c gray96",
"B. c white",
/* pixels */
"B.B.B.B.B.B.B.B.B.B.B.B.B.B.B.B.B.B.B.y.5.5.5.5.5.5.u.u.u.u.u.N.B.B.B.B.B.B.B.B.B.B.B.B.B.B.B.B.B.B.",
"B.B.B.B.B.B.B.B.B.B.B.B.B.B.B.N.N.N.B.m i i i i i i L L L L K h.B.N.N.B.B.B.B.B.B.B.B.B.B.B.B.B.B.B.",
"B.B.B.B.B.B.B.B.B.B.B.B.B.B.B.x - - - K L L L L L L L L I I I L K K J h.B.B.B.B.B.B.B.B.B.B.B.B.B.B.",
"B.B.B.B.B.B.B.B.B.B.B.B.5.m C P ^ ....X.X.X.X.X.X.X.X.X.( L I I I I L ^ / / B.B.B.B.B.B.B.B.B.B.B.B.",
"B.B.B.B.B.B.B.B.B.B.B.y.E h ! ^ 9.a.8.9.9.9.9.9.9.9.9.0.X.( I I R ( ^ ^ ~ K u.c.B.B.B.B.B.B.B.B.B.B.",
"B.B.B.B.B.B.B.B.B.B.B.i F ~ q.0.s.z.8.9.9.9.9.9.9.9.9.9.9.0.I I ^ q.0.q.X.I K u.B.B.B.B.B.B.B.B.B.B.",
"B.B.B.B.B.B.B.B.B.n.w L | q.X.x.a.X.9.9.9.9.9.9.9.9.9.0.| J q.0.0.9.9.9.9.0.q.~ T B.B.B.B.B.B.B.B.B.",
"B.B.B.B.B.B.B.B.5.E J  .X.t.z.x.z.s.8.9.9.9.9.9.9.9.q.^ ^ X.9.9.9.9.9.9.9.9.9.X. ./ B.B.B.B.B.B.B.B.",
"B.B.B.B.B.B.B.B.Q g ^ 9.9.q.s.x.v.v.a.0.8.9.9.9.9.9.| ^ | 0.9.9.9.9.9.9.9.9.9.X.( K u.c.B.B.B.B.B.B.",
"B.B.B.B.B.B.B.B.Q G q.9.9.8.X.z.c.B.x.t.8.9.9.9.9.9.K  .0.9.9.9.9.9.9.9.9.9.0.^ L I K u.B.B.B.B.B.B.",
"B.B.B.B.B.B.B.- F ~ 0.9.9.9.9.8.a.x.x.v.s.8.9.0.| K q.8.8.9.9.9.9.9.9.9.9.0.9.0.q.q.0.^ R B.B.B.B.B.",
"B.B.B.B.B.B.B.r / X.9.9.9.9.9.8.q.t.t.t.q.8.9.0.| L 0.s.a.8.8.8.8.8.9.0.X.R 9.8.8.8.s.t. .{ N.B.B.B.",
"B.B.B.B.B.N.j.g { 0.9.9.X. .9.9.8.0.a.a.a.a.8. .( ^ 8.s.z.a.a.a.a.a.8.X.| ~ 8.t.a.8.z.s.t.J c.B.B.B.",
"B.B.B.B.B.j.- L | 0.9.q.^ R 0.9.8.t.v.x.x.x.8.R ^ q.8.s.x.x.x.x.x.v.9.^ R q.8.s.z.8.z.x.z.J N.B.B.B.",
"B.B.B.B.B.j.r L | 0.q.K | q.9.9.9.8.8.8.8.8.q.R ^ 0.v.x.v.B.B.v.s.X.q.^ ~ 8.x.B.N.J z.x.z.q.L w.B.B.",
"B.B.B.B.B.j.r L  .X.~ L | 0.9.9.9.9.9.0. .~ ~ I ^ 0.t.z.v.v.v.s.t.0.~ F H 8.x.v.x.K t.s.s.8.U w.B.B.",
"B.B.B.B.B.j.r L ( ( L L | 0.9.9.9.9.9. .^ K F K ^ q.8.a.s.a.s.9.|  .L h G 9.s.s.a.K | t.s.8.I w.B.B.",
"B.B.B.B.B.j.r U I I I L | 0.9.9.0.q.q.R L I t P ^ 0.8.0.| J q.~ L L I h G q.8.8.X.L K ( 8.0.Y w.B.B.",
"B.B.B.B.B.j.r U I I I L | 0.q.q.( K L I I I t P ^ 0.0.G g L q.^ P e t i g K 8.8.X.L I ( q.q.f <.B.B.",
"B.B.B.B.B.j.r U I I I L | 9.~ ^ R I I I I I t P ^ 0.0.G h I ^ F ! 6.6.C g L 8.q.X.L L ( 9.q.g <.B.B.",
"B.B.B.B.B.j.r I I I I I ^ | L I P P P P P I t P ^ 0.q.G h U P a m 6.6.) b P  .X.X.L P ( q.q.g <.B.B.",
"B.B.B.B.B.j.r I I I I I I L I Y h u u u h I t P ^ q.q.G g Y r r e w w ` ` t K | 8.L u ! q.q.f <.B.B.",
"B.B.B.B.B.j.r I I I I I I I Y p s k k k s p u P ^ 0.q.9.{ r i.r.r.r.[ [ ` t I I I U u ! 8.L u <.B.B.",
"B.B.B.B.B.j.r I I I I I I P h s z z ` z z s % F ^ 0.~ X.{ t ' ) ) ) V B V 1.h P I g F / 8.a 5.n.B.B.",
"B.B.B.B.m.5.a I I I I I I P u k B ) 4.` z k   F ^ 0.K  .{ t z k k > > k B i.m H F t I ^  .- m.B.B.B.",
"B.B.B.B.W a U I I I I I I P u y ' i.l.2.V e   P ^ 0.K X.{ i y y >     > B r.r.) u u I I K w m.B.B.B.",
"B.B.B.B.W g U I I I I I U P p   S i.l.2.2.r.  3 ! q.K X.{ t =.=.%.  +.-.2.r.r.' v u I h x B.B.B.B.B.",
"B.B.B.B.W g U I I I I I F g p   n ' p.] 2.r.W 5 G ^ K X.{ t =.j.>.  o.D 2.r.r.' v u g } j.B.B.B.B.B.",
"B.B.B.B.W g U I I I I U h u p % : N 4.] 2.r.r.4 = P L X.{ t =.m.g.7   Z 2.i.i.' B W C y.B.B.B.B.B.B.",
"B.B.B.B.W g U I I I I U h u p a & . v ] 2.r.r.< * a L X.{ t =.m.d.O.  N 2.l.l.,.) B.B.B.B.B.B.B.B.B.",
"B.B.B.B.Q g U I I I I U h u p p p 3     S r.r.r.W   Y U F t r.c.M.@.@.>.r.l.l.i.1.l N.B.B.B.B.B.B.B.",
"B.B.B.<.G P I I I I I U h u p p p u = = Z 4.r.r.W   F P F t r.p.j.b.b.j.p.l.l.i.4.d N.B.B.B.B.B.B.B.",
"B.B.B.- P I I I I I I U h u p p p p p p v ] r.r.,.< 3 P F t r.e.r.p.l.l.l.l.l.i.1.d N.B.B.B.B.B.B.B.",
"B.B.B.r P I I I I I I U h u p p p p p u V ] r.r.r.r.  F P i r.r.r.e.l.l.l.l.r.2.] d N.B.B.B.B.B.B.B.",
"B.B.B.r P I I I I I I U h u p p p p p u V ] ] e.r.r.r.9     r.r.r.r.r.r.r.r.2.n 8 B.B.B.B.B.B.B.B.B.",
"B.B.B.r P I I I I I I U h u p p p p p u V ] ] 2.2.2.r.,.S S r.r.r.r.r.4.2.' n %.>.B.B.B.B.B.B.B.B.B.",
"B.N.m.r P I I I I I I U h u p p p p p u c ] ] ] ] ] e.e.e.e.e.e.4.4.r.' _ z # >.B.B.B.B.B.B.B.B.B.B.",
"B.>.  p P I I I I I I U h u p p p p p p s v v ] [ [ [ [ [ [ [ [ ` v v $     B.B.B.B.B.B.B.B.B.B.B.B.",
"B.f.  p P I I I I I I U h u p p p p p p = . . O + + + + + + + + + +   >.N.m.B.B.B.B.B.B.B.B.B.B.B.B.",
"B.f.  p P I I I I I I U h u p p p p p s j M %.%.%.S n n M S S M n $ :.n.B.B.B.B.B.B.B.B.B.B.B.B.B.B.",
"B.f.  p F I I P I I I U h u p p p p p k V 2.l.l.p.e.[ [ 2.r.r.2.` d N.B.B.B.B.B.B.B.B.B.B.B.B.B.B.B.",
"B.>.  a u g Y t F U I U h u p p p p p y ) r.l.l.i.[ ] 4.r.r.r.r.4.[ q y.B.B.B.B.B.B.B.B.B.B.B.B.B.B.",
"B.N.m.  3 h Y u F U I U h u p p p u y ` 2.r.r.2._ z ] 4.r.r.r.r.r.4.e y.B.B.B.B.B.B.B.B.B.B.B.B.B.B.",
"B.B.B.  3 g F u h F I U h u p p p i k ` 2.r.r._ B z 4.e.r.r.r.r.4.1 e y.B.B.B.B.B.B.B.B.B.B.B.B.B.B.",
"B.B.B.  = i i p u g U U h u p u u u k ` 2.r.r.B k v r.r.r.r.r.r.1 , e y.B.B.B.B.B.B.B.B.B.B.B.B.B.B.",
"B.B.B.B.0 . a a p g Y U h u a   & p k ` 2.r.r.B V ] r.r.r.r.r.r.1 i.q y.B.B.B.B.B.B.B.B.B.B.B.B.B.B.",
"B.B.B.B.m.>.  . 3 a g U I F t n.$.o y ` 2.r.r.B V [ r.r.r.r.] 2.` z m.N.B.B.B.B.B.B.B.B.B.B.B.B.B.B.",
"B.B.B.B.B.n.$.;.9 3 & F F h t >.:.$.e ` 4.i.i._ V ` r.r.r.r.2.2.` w B.B.B.B.B.B.B.B.B.B.B.B.B.B.B.B.",
"B.B.B.B.B.B.B.B.$.  @ u u u p   ;.B.w ` r.l.l.2.` y r.r.r.r.r.2.` w B.B.B.B.B.B.B.B.B.B.B.B.B.B.B.B.",
"B.B.B.B.B.B.B.B.B.B.B.          :.N.w ` 7.l.l.2.` k ] 4.r.r.r.2.` w B.B.B.B.B.B.B.B.B.B.B.B.B.B.B.B.",
"B.B.B.B.B.B.B.B.B.B.B.g.g.g.g.g.N.m.  ` 4.i.i.) z k [ 4.r.r.r.2.` q B.B.B.B.B.B.B.B.B.B.B.B.B.B.B.B.",
"B.B.B.B.B.B.B.B.B.B.B.B.B.B.B.B.B.m.  n ' 4.4.V z ; ` ' 1.4.4.` _ &.B.B.B.B.B.B.B.B.B.B.B.B.B.B.B.B.",
"B.B.B.B.B.B.B.B.B.B.B.B.B.B.B.B.B.m.    n [ ] V j   v k B ] ] z *.B.B.B.B.B.B.B.B.B.B.B.B.B.B.B.B.B.",
"B.B.B.B.B.B.B.B.B.B.B.B.B.B.B.B.B.m.  v :       9 r.r.2.` y y y *.B.B.B.B.B.B.B.B.B.B.B.B.B.B.B.B.B.",
"0 ;.B.B.B.B.B.B.B.B.B.B.B.B.B.B.B.B.g.4 : z _ ,.6.p.l.) z z z y *.B.B.B.B.B.B.B.B.B.B.B.B.B.B.B.B.B.",
"X $.B.B.B.B.B.B.B.B.B.B.B.B.B.B.B.B.B.;.A j ` 4.i.l.l.Z k v v y *.B.B.B.B.B.B.B.B.B.B.B.B.B.B.B.B.B.",
"0 #.B.B.B.B.B.B.B.B.B.B.B.B.B.B.B.B.B.B.>.  l 1.i.l.l.Z k v v y *.B.B.B.B.B.B.B.B.B.B.B.B.B.B.B.B.B.",
"0 #.B.B.B.B.B.B.B.B.B.B.B.B.B.B.B.B.B.B.:.. [ r.r.e.  j v v   g.B.B.B.B.B.B.B.B.B.B.B.B.B.B.B.B.B.B.",
"0 #.B.B.B.B.B.B.B.B.B.B.B.B.B.B.B.B.B.B.:.. [ 2.2.2.j 5 : v j A ;.B.B.B.B.B.B.B.B.B.B.B.B.B.B.B.B.B.",
"8 #.B.B.B.B.B.B.B.B.B.B.B.B.B.B.B.B.B.B.:.. [ 2.2.2.` 2 * v ` * 0 B.B.B.B.B.B.B.B.B.B.B.B.B.B.B.B.B.",
"  #.B.B.B.B.B.B.B.B.B.B.B.B.B.B.B.B.B.B.;.. [ r.r.r.r.4 * v [ 6 0 B.B.B.B.B.B.B.B.B.B.B.B.B.B.B.B.B."
};
