/* XPM */
static char *bd822c81cd054cb8c03896c2a059cbbdOP4Eq3ttuxNF8sXA[] = {
/* columns rows colors chars-per-pixel */
"42 57 10 1 ",
"  c None",
". c black",
"X c #601010",
"o c #683008",
"O c #784808",
"+ c #A07800",
"@ c #F8B008",
"# c #687880",
"$ c #D8C0C0",
"% c #F8F8F8",
/* pixels */
"                                          ",
"                                          ",
"                                          ",
"                                          ",
"                                          ",
"        XXXXXXXXXXXXXXXXXXXXXXXXX         ",
"        .........................         ",
"    +OOO..@@@@%.@...@.@%.@@@@@%..OOO      ",
"    +OOO..@%....@@.@%.@%...@%....OOO      ",
"    +OOOO.@@@@%..@@%..@%...@%...OOOO      ",
"    +++++.@%....@%.@@.@%...@%...++++      ",
"    +oooo.%%%%%.@...%.%%...%%...oooo      ",
"    +oooo.......................oooo      ",
"    +ooooooooooooooooooooooooooooooo      ",
"    +o............................+o      ",
"    +o.oX++O+O+++O+O+O+++++++++++.+o      ",
"    +o.XoOOOoOOOoOOOoOOOoOOOoOOOo.+o      ",
"    +o.oXoOoOoOoOoOoOoOoOoOoOoOoO.+o      ",
"    +o.XoOoOOOoOOOoOOOoOOOoOOOoOO.+o      ",
"    +o.oXoOoOoOoOoOoOoOoOoOoOoOoO.+o      ",
"    +o.XoOoOoOoOoOoOoOoOoOoOoOoOo.+o      ",
"    +o.oXoooooooooooooooooooooooo.+o      ",
"    +o.XoOoOoOoOoOoOoOoOoOoOoOoOo.+o      ",
"    +o.oXoooooooooooooooooooooooo.+o      ",
"    +o.XoooooOoOoOoOoOoOoOoOoOooo.+o      ",
"    +o.oXoooooooooooooooooooooooX.+o      ",
"     +o.oXoooooooooooooooooooooo.+o       ",
"     +o.Xooooooooooooooooooooooo.+o       ",
"     +o.oXoooooooooooooooooooooo.+o       ",
"     +o.Xoooooooooooooooooo####o.+o       ",
"     +o.oXooooooooooooooooo#%$#o.+o       ",
"     +o.XXooooooooooooooooo$##$o.+o       ",
"     +o.XXXoooXoooXoooXoooX.##.X.+o       ",
"     +o.XXooXoooXoooXoooXoo....o.+o       ",
"     +o.XXXoooXoooXoooXoooX#..#X.+o       ",
"     +o.XXoXoXoXoXoXoXoXoXo####o.+o       ",
"     +o.XXXoXoXoXoXoXoXoXoX####X.+o       ",
"     +o.XXoXoXoXoXoXoXoXoXo....o.+o       ",
"     +o.XXXXXXXXXXXXXXXXXXXXXXXX.+o       ",
"     +o.XXoXoXoXoXoXoXoXoXoXoXoX.+o       ",
"     +o.XXXXXXXXXXXXXXXXXXXXXXXX.+o       ",
"     +o.XXXXoXoXoXoXoXoXoXoXoXXX.+o       ",
"     +o.XXXXXXXXXXXXXXXXXXXXXXXX.+o       ",
"      +o.XXXoXXXoXXXoXXXoXXXoXX.+o        ",
"      +o.XXXXXXXXXXXXXXXXXXXXXX.+o        ",
"      +o.XXXXXXXXXXXXXXXXXXXXXX.+o        ",
"      +o.XXXXXXXXXXXXXXXXXXXXXX.+o        ",
"      +o.XXXXXXXXXXXXXXXXXXXXXX.+o        ",
"      +o........................+o        ",
"      ############################        ",
"     ##############################       ",
"     ##############################       ",
"     $$$$$$$$$$$$$$$$$$$$$$$$$$$$$$       ",
"                                          ",
"                                          ",
"                                          ",
"                                          "
};
