/* XPM */
static char *d547c4e28c8a4fdbf4d634b883a0de93BP6Q9AivqR9FoJBX[] = {
/* columns rows colors chars-per-pixel */
"46 56 10 1 ",
"  c None",
". c black",
"X c #601010",
"o c #683008",
"O c #784808",
"+ c #A07800",
"@ c #F8B008",
"# c #687880",
"$ c #D8C0C0",
"% c #F8F8F8",
/* pixels */
"                                              ",
"                                              ",
"                                              ",
"                                              ",
"          XXXXXXXXXXXXXXXXXXXXXXXXX           ",
"          .........................           ",
"      +OOO..@@@@%.@...@.@%.@@@@@%..OOO        ",
"      +OOO..@%....@@.@%.@%...@%....OOO        ",
"      +OOOO.@@@@%..@@%..@%...@%...OOOO        ",
"      +++++.@%....@%.@@.@%...@%...++++        ",
"      +oooo.%%%%%.@...%.%%...%%...oooo        ",
"      +oooo.......................oooo        ",
"      +ooooooooooooooooooooooooooooooo        ",
"      +o............................+o        ",
"      +o.oXXXXXXXX..................+o        ",
"      +o.XoXXXXXX.X.................+o        ",
"      +o.oXXXXXXXX..................+o        ",
"      +o.XoXXXXXX.X.................+o        ",
"      +o.oXXXXXXXX..................+o        ",
"      +o.XoXXXXXX.X.................+o        ",
"      +o.oXXXXXXXX..................+o        ",
"      +o.XoXXXXXX.X.................+o        ",
"      +o.oXXXXXXXX..................+o        ",
"      +o.XoXXXXXX.X.................+o        ",
"      +o.oXXXXXXXX..................+o        ",
"       +o.oXXXXXX.X................+o         ",
"       +o.XXXXXXXX.................+o         ",
"       +o.oXXXXXX..................+o         ",
"       +o.XXXXXXXX.................+o         ",
"       +o.oXXXXXX..................+o         ",
"       +o.XXXXXXXX.................+o         ",
"       +o.oXXXXXX.X................+o         ",
"       +o.XXXXXXXX.................+o         ",
"       +o.oXXXXXX.X................+o         ",
"       +o.XXXXXXXX.................+o         ",
"       +o.oXXXXXX.X................+o         ",
"       +o.XXXXXXXX.................+o         ",
"       +o.oXXXXXX.X................+o         ",
"       +o.XXXXXXXX.................+o         ",
"       +o.oXXXXXX..................+o         ",
"       +o.XXXXXXX..................+o         ",
"       +o.oXXXXX...................+o         ",
"        +o.XXXXX..................+o          ",
"        +o.XXXX...................+o          ",
"        +o.XXX....................+o          ",
"        +o.XX.....................+o          ",
"        +o.X......................+o          ",
"        +o........................+o          ",
"        ############################          ",
"       ##############################         ",
"       ##############################         ",
"       $$$$$$$$$$$$$$$$$$$$$$$$$$$$$$         ",
"                                              ",
"                                              ",
"                                              ",
"                                              "
};
