/* XPM */
static char *result[] = {
/* columns rows colors chars-per-pixel */
"100 100 50 1 ",
"  c #77991F",
". c #7A9E1E",
"X c #7DA517",
"o c #7DA41C",
"O c #7FA81B",
"+ c #6F8A2A",
"@ c #718E2A",
"# c #769627",
"$ c #779925",
"% c #799C23",
"& c #74932A",
"* c #77982B",
"= c #7A9C2B",
"- c #7CA221",
"; c #7EA22C",
": c #8DBE04",
"> c #87B60E",
", c #88B70F",
"< c #8BBB0D",
"1 c #83AD16",
"2 c #81AB1A",
"3 c #86B314",
"4 c #88B712",
"5 c #89B911",
"6 c #85B118",
"7 c #89B61C",
"8 c #8BBB1C",
"9 c #80A724",
"0 c #83AB23",
"q c #80A62C",
"w c #84AC2D",
"e c #87B223",
"r c #89B526",
"t c #8BBA24",
"y c #87B12E",
"u c #89B42F",
"i c #8DBA2D",
"p c #90BF2E",
"a c #89B430",
"s c #8EBB30",
"d c #90BF31",
"f c #8FC016",
"g c #90C217",
"h c #91C21C",
"j c #91C224",
"k c #93C32E",
"l c #94C431",
"z c #97C932",
"x c #99CD33",
"c c #9CD134",
/* pixels */
"343&%Xo213644521333OOX&&#%-%o%&&#&&-3342###oo.2o#&&&&&@#%%=4<4#2113.@$550*;=&&-$354$&&&&@#6fXo1133#$",
"34-@ooo233145621136XX-&&$$%%%$&&@&%1314-&##o%..o&&&&&&%2=&65<-$2221#$4<7****-1=65<0@#&&&-7<4$O121O#$",
"43$#..o34115<.22232oo%&&$$$%%#&#=223113$&&=$%%.$&&&@#24%@-454$-2222$444%&#&94$o,54$&&&-225<2$2X22o&o",
"4o&$%.341X451%2o16X.o$&&###$##-24%o1212#&&&##$%#&&&-4<=@#45<6#X222o1441#&&2<-%>342&&*33=445$%OX2O%o3",
"1-&#o54223559%2o11o.-#&&#&&&#24<%#2221X&&&&&&&##&#1<<%@&2<4<-$2X2o1364-@&2:2#1133%&O<4*2,43#%oooXo11",
"X##655o%2554$ooo2O%%%#&&&&&#6<<-@%2o22%&&&#&&&&@=1459&&#4554%%ooo23131&&6<4#o111O%2:4%2<34-#.o..X222",
"o%4<5-$o45<2#o.XXX%%%&&&&&#6<42&&.2XX2$&&&&&&&@%1341&&@94343#.ooo1144-@2559#222124f<o24633$#%%%o2X2X",
"o4552#*254<%#o%ooo$$$&&&&#3<33*&&ooooo#&&&&&&&#2113$&&#1334o&-o%24411#2<54#-22214443631631##%%$o2oo2",
"4344*@%1444##.%.o.###&#*#3<36-&&#oo%o.&&&&&&&&o221o&&&%3663%#.%X4<12o%,342@ooX2434344O113X&##*%oo%25",
"114-@@24342&$%%%.$&##&-#-<41O&&&$.-.o%&&&&#&&.2oX2$&&*o1111$#%24522221133##ooX13664<2X121%&###$.%o44",
"112#&*14149&$$$% #@#&2%$<52Oo@&&%%%..%&&&&@&%o.ooo#&$%X2O1O&%3551ooo211,2@%o-23323<6oOO12#&&&&#*%3<O",
"22o&&%1134#&$$#$$#&#22&3<4Xo$&&&%%%%%$@&&@=2%%%.o-&--$oXO1o#3443XX.222,4%&%%o442155oo2OO2&&&&&&&1<4$",
"o2#@&22342*&####*#@14&o<53--&&@=o$$$%##&@-3$#$%%.#%6&%ooooo2336XX-%22442#&$2>4XO453%OooO-&&&&&&-<f2&",
"..*&#21,19&&@#&&#&-f%$444o$%&&-2######@#9<=@*##%$-4%&.oooX21261O.%o2342-&=1<3oo3<f2$oooX%&&&&&%554$&",
"%%&&$1431.@&&&&@$2<6&2433$$#&O3&@##&#&&1:-@&&&#&%42@#%..-OOOO16%$%o3<1X%-4<4%%25<<%%o.oo$&&&&&25<2&&",
"##&@2<422$&&&@&24<<%$414o&##6<$&&&&&##2f1@&#&&&#45&&#%%%.2XoX,o#$#2<4oo244<-#%44<3#%-o%o#&&&&-43<-@&",
"&#&*45322#@&@%3<553#2313%&#7fX&&&&&-$6<4*&&&&&#6fo@##$#$oXo.43&#&%<<1%2,4<2@&o43<9#.%.%o#&&&#1343$&#",
"&&&2<42%.*&&9<<45<-$1211##6<3&&#@#2-2<<2&&&&&=2<<$&&&##$%-%6<%&&#7<4%23343=@#1433%#%%%%%&&&@-3342&&%",
"&@-<51%..@#2<445<5=o2212#3<4%+*+=3%-444#&&@=22<<0@&&&&&#$#2<2&&@2<<1$11212@&-3133##$%%%$&&&#2333-@&o",
"&#4552%.%&2>434<<2#2222%2446&&&-<-$4440&&&24-34<$&&&&&&&&o<<-&&=55<9o2222$&&23142&####$#&&&%1111*&#o",
"@2<54%%%$2111454<-%2222236>%&&Of6&6364$@-4<$2446&&&&*&@#;5<6#&&6553$.oooo#&$1144%&######&@&21212#&$o",
"%<452#%%o22215544#.XX.11131&&O:5#-3132#2<4%O<3<-&&&&+&ww7<<-&@-4442#%..2%@&-2342$&&&&##&&=%2221X&&%o",
"6444%##%2o22343<1#o..21134-&O<5-$1221X3f5-24333#&#&+;ly-<,3*&&2434%#$%%%$@#o3512#&&&#&@$2%%22O1%&&%%",
"3341###oo..2343>-*.o22>,32#o<43#.1O214<44242142&&+*scy&34<O&&%3131#&&##$#&#1<32X&&&&@&04%@.oXXO$&&%$",
"3632&&#%.%o28614$#1323522o-43<-#XXX24334442113-&@wzcw+243,%&&O3132&&&&&&&@-<,22.&&&@%4<$@#ooooo#@##$",
"113%@&#$%% r7242%7423<3X2o1333#$oXo33634422211%@wzxs@=3446&&#O121.@&&&&&&*4<1.o%&&&25<%&&#o.ooo#&##$",
"212*&&&###wk2223<434<6ooX211>O&%ooX6413<3-2212#ulld*@2364O&&.2O22%&&&&&&&1<52.o%@=3<<9@&&$.o%o%&&&##",
"222&&&&*@qx12245434<3Xoo21243$&o%o342144oo2222wislw@#2113%&&o2XO2*&&&&*@-<54%..#&6441&&&&%%%%o$#&&&&",
"222@@&&@=xt.24444333OXo.2234X##$o342X554%X2XO0yaau#&%1111$&$oooX2&@&&&&*55<2 .%$1131=&&&&$%.%%$&&&&&",
".2%&&&@=zz%214441112O-%o23<2-@$6<4Xo34<0$Xoo2ywya;@&X2212&&$oooo%&&&&&@2555%$%%21112&&&&&$$$$%$&&&&&",
"X. @&&&lcu.133412226-$%X1<3o*%7<4--2<54%%oooewqww*@*22X2o&&$.o.o%&&&*@$44,1$$$.2222$&&&&&###%%$&&&&o",
".2#&*@sxz%211132XX42&$$2<4ooo4<4-#%4546#%o.o0;;w;&&%XX22%&#%%%..*&&#&@243,9*#$2oooo&&&&&&&$o%$&&&&-2",
"o%#&@wxxu 2O212oo46&##-5<1%25452&&o<4<-&.%o--=;;=&&-oooX$&&$%%%%#&&+&-333>$#&%o.oo%&&&&&&-2$&&*&@#2.",
"%%&&=lxz; ooX1o.1<$&&#6<4%o>343#&#1434%#.%%%-*==&&#-oooo$&#$$$%%#&&-26361O&&#$$$%%#&&&&*36*&&&&&&..2",
"%%&&uzzs#%-.Xo%2<6@&@0<<2%1363o&&-3333&$%$$%$&#*#&#%o.ooo&####$#&*63=O316o&&###*$$&&&#O<6&&&&&&&#%..",
"$#@;lllw&%$$o%-5<-&&$<54-o1221#&&2314-&$$$$%$&#&&&$.%%-1#@&&&###O<4&%OO11%@&&&&&###@$>f3&&&&&&&&#$$%",
"$#&ilsl=@##$#%4<3#&&64<6$XXOOo&&%1234%&####$#&&&&&$%$%3o@#&&&&*1f<$&XOOOO$&&&&&&&&&%444%&&&&&&&&&##%",
"#&;ssdu&&#&##3<<%&@-44<2%%o-o%&&o1341#&&&#&*&&#*&&$$$46#&&&&&$344-+$oXOXX#&&&&&&&&->6>-&&&&&&&&&&&&#",
"&#usssw@&&&@9<53*&&1333%#%$%%$&#2143X&&&&&&&&-%#&#*#64%#&&&&%133O&&$oooXo&&&&&&&@%1111&&&&&&&&&&&&&&",
"@=auai=&&&&#44<0@&%3336####$*#&$1532-&&&&&@-3-&&&$&2:o#*&&&$2111$&&$oo.o%&&#&&&&$O2O1-&&&&&&&&&#*&&&",
"&qayaa&&&&&2434%@&211>2@&&&&*#&-<422%&&&&=1<-@&&-#-<7###&&#o222o&&&%o%.o=&&&&&&$oooXX#&&&&&&&&%=&&&@",
"&wawaw&&&&$4346&&=1211%@&&&&&&#3<3oX$&&&-4<%@&&2=%<<9@&&&&$ooo2#&&&%%%oo$&&&#&$%.o-X-&&&&&&&+--&&&@w",
"=wwwyq&&&@2>132&&%2221$&&&&&&@0<<O.o*@#2<<2@&&10&3<4#&&&&&%o.o.#&&&#oOo%*&&&@--$.%oo$&&&&&&&-6&&&@ic",
"qwwww=&&&#2133$@&22222&&&&&&&-<43%%o##1,46&&&24@O<42@&&&@%2$%.%&&&&o6%#%#&&@-2#*%$%%&&&&&&&=,$&&&pcs",
"qqqqw*&&@.1111*@#2oo2o&&&&&@$455o%o%#2334$&@0:%=444%&&&@-2=#%%#&&@O<%&$$&&@%5=&##$$%&&&&&&$<O&&&pcz*",
";;q;q&&&&21212&&%.o2X &&&&&&1<54%%%%O1232&&-:1&1341&&&&23&&##%&&#1:o@###&&$<-&#&&##$&&&*#&4,&&&sxxy@",
";;;;;&&&$2221.&&%.o..%&&&#&=4541$$$o2O22=@%5<%%3142&@&1<$&&&####6f2@&&&&&$44&&&&&&&&&&%-&3fO&&yzld*@",
"===;;&&&2oo21%&&...%o*&&&&&2534-##%XoXXo@#453&2163$@=4<-&&&&&%$1<4$&&#&&&4f-&&&&&&&#&%O&-f> +wllly@&",
"**==*&=2ooooX$&#%%%..#&&&&%3343#&#%o%oX%&65<-$3332##4f6&&&@*O%6552@&&&&=2<4#&&&&&&&&#>*%<<2@*sppd%&&",
"***=##1$.oooo#&#$$$%%&&&*O66132&&#$%%%-&-<54$3421o#354%@&@%3--,44#&&@=01<<2&&&&&&&&#<9&454%@ydipp$&&",
"&**&=49#oooo-#@&$#$$$@&O3-O113-@&###$$$*445444222-2546&&&X:o%,342@@#24-454=@&&&&&&*44@2446@qiaip0@&&",
"&&&&43@$.%%o%&&&#&###-4<$%1122$&&&&##$#2<44<42XOX2463%@&OfO#3633=@-44$2442&&&&&&&&6:%$43<9@waujp*&&&",
"&&&2<-@$%%%o$&&#&&=*2<5*@o2212#&&&&&&@$45555Xooo23141&&2<5#o333O#2<4$2,3<-&&&&&&@2<7#2113$*wihtw&&&&",
"&&2:2&#$%%%%$&&@*w;15<-+$X2e2o#&&&&&@*0<5551.ooo1334-@6<<-#1OO1X3f<224333$&&&&&@-<<-%1142&qrh8uq&&@*",
"&05<-&&*#$$$#&@;k-1346&&$0toX-&&&#&@ww344<7%ooo23432&o<43#o22O14446241132&&&&&&*4<4#22112@0ghrqq@@92",
"25<6&&&*#####@wz;X113*&@-k0oo%&&&@&iwo443<-$%%o4432o-43<-#XOXO433444211>-#&&&&&6552#1111#9g88qq*&21*",
"755-&&&&####&uxw.OO1X&&#zr oo$&&@*zs+23343#$%24<2oOX6333#*Xoo33134522111=&&&&@9<5<$%122X94480qq&34&2",
"454&&&&&&&&&ics%ooX1$&&lz.%.-$&&;xl@%33332&$2<<6OXX1634o&-o.23313<6o2222&&&&&#4454#o22X23786=qq4<%%4",
"442&&&&&#&@scl=.oooo&&sxw %.%#+;xx=@X123>-#1443ooo21143*&.%o3421<4-o222o&&&&@2<4<2=ooX211349&q5<2&12",
"44-@&&&&&&sxxu#%%%o%+ycl#$$$%@wxcy&#o2221%2>43Xooo1O34O&#$o432X4<7%XXX2.&&&&#644<%$2oo21343*=554&212",
"31$&&&&#@yzzl=##$--&;xcw&$#$#;zxz*&*oXo2221162Xo$o2352o&$2<4oX34<--XoX2$&&&@o4143#%o.o14>12&35,2&222",
"32&&&&&@;lllu&&#;-#%zcl*&###;lzxy+&#-.oo222226-$%X352X$%3<4%%1554%-oooo#&&&&11142#.% 15422%2443#$2.2",
"1-&&&&&=sldl=@@w;##icxu+&&&#slll*&&#.%%o2XXX>o#$%1<5Xo-5<5-#-45<2#oo%oo&&&&$1113-#%.1<422.24342@...1",
"1%@&&&&wsslu&@uu@@wxxx;+#&&wdsly&&##$$$oooo46###-452%655<2&&O44<-#%%%.%&&&&-1221$&-3<422222134$&2.21",
"2#&&&@=ssssq+al&@&zxxl&&&&;ssss;&&&&#*$Xo%6<$&&&3<4%o>346#&#3434%*%%%.%#&&&oXO22#%4442Ooo121<2&$.%24",
"o&&&&&waaaa#wx;@&yczxy+&&&waasa&&&&&&&%o$Of1&&&O<<2%6613o&@-3636#$%$$%$&&&#ooXXo-3641XX-o1141o&#%2<3",
"-&&#&*wayawqcs@&*lzzz;@&&=aauuw&&&&&@-o#o<<.&&%<5<-o12O1*&#131>o@#$$$$$&&&$ooooX1116OO.%22<32$@-4<19",
"%&&&&;wwawwzx;&@wllzl#&&&;wwwa=@&&&&-2&*4<1#&&6457$XXXOo&&%6234%&###$##&&&$o-.o2OXO32$%o244Oo&-<<2 %",
"=&&&&qwwwwzcs&&&sdsla&&&&qqwww&&&&@%<$@3<5-&&->44o$oooo$&&o134O*&&#&##&@&$%%%.OXXX13%$$%3<2oo2<<3##2",
"#&&&&qqqqdxxq&&;ssslq@#&*;qwwq&&#@$<2@-<53&&&2434%#$$%%$&#X2,3O&&&&&#&#--&$$$%Ooo24-&$#6<4o-3,44%&#3",
"&&&&*q;;azzl&&&wsass=&&@=aw;q;&*##54&#44<-&&-4636#&#$$$#&$O<3Oo@&&&&&-6-&&#$$.o-o<6&#@-5<2%133<2@&94",
"&&&&*=*;zzza@&&yayaa*&@;sw==;*$-&3f-@2444%&&O613o&&&&#$&&o<<OO-@&&&*24-@&&&&$$%%3<%&&#354-o3113*@@13",
"&&&&*=*azzz=&&*wyyaw+=sz=&*==-2&2<4#*4341&&$1111-&&+$$&@*><6oO-&&&-5<-@&&&&&&##6<6#&&2<<3%2221X&@%33",
"&&&&&&;llls&&&;waww;yxz*&**&;4&-<<2&O333-##-X212*&&--&&&Of4XOX#&#2<<-@&&&&&&&&o<5-&&-44<--oXX2$&@212",
"@&*#&&yddlw@&&;sw;wlcz=+#&&*4-&44<$#13132=#o1OOO&&2O&&@o<<36Oo&#1<47=&&&&&&&&=5<4#&&2443%%ooo-#&#124",
"%o*&&*sssd=&&&dy=wlzzw&&&&&47&2442&o3214-@$XXXOo#76&&&*,<5,6%-#O418y&&&&&&&&#3<<9@&%4342$$$%%%&&%144",
"2&&&@wssss#&@ds&wllls@&&&#3f%%43,-&22142&&$ooooO44&&&&Of554o%%O6O7p#&&&&&&&&o,45=&&2333o&##=$$#&2342",
"&&&&&waasw&@sz#;sssk=+&&@2:6&2633*$214<-&&%-ooO4<%@&@-444<O##oOX2z;@&&&&&&&$3442&@$1233$@#&&##&&6<32",
"&&&&;aaaaq+ycw&aiusy&&&&-<<-$3132&%3542%&#$ooO5<2@*&&O445<%#%oooxt&&&&&&&#*O434-@&o1212#&&&&&#@-<42o",
"&&&&qwwaa=wcl&;wyua=&&&%4<3#X111o&2<43X$@&O2O554=&&@-335fO&#oookx%&&&&&&;--6634$@#2222o&&&&&&&$4<3..",
"&&&&wwwwwqzcw&qqwww&&&&34<0#1221#-<<3oX#@26%44,O@@=244554=@#%%pcu#&&&&*13#.>132&&%2222 &&&&&&&3<<2%o",
"&&&*qwwwwlcl*=qq;w;&&@-<4<%%222Xo444Oo%#64%244>$&245345<1&&#@ixz%&&&&-44&@11112&&%Xoo2%@&&&&&9<44%%.",
"&&&*qqqqdxxu@==q;;=&&=54<7#o2XX23343o%o4<%-4632-4<541455-@#@qzxi#&&*1<4*@%2221%&*%o.2.#&&&&@#45<1$%%",
"&&&=q;;uxxx=@=*=;;&&wt54<2$Xo2X1634O$o4<O#11663<45225454=&&=kxz;@&$4<5$@&22221#&#..o.o*&&&&&244<%#%$",
"&&@;w;;lzzl&&*****wlw344<%$ooo21143$-454#-1264<4<7o44451&&@ixxl@@%4349@&&22X22@@$.%%29&&&*@$4343###.",
"&=29==ullzw@&&&@;lx;.3343$%o.o1443X$45<-#O214,4452343442@@qzzxy@%1131#&&*ooo2.&&$%$%y$&&&@#24132&#$2",
"24-**=dlll=@*@&azc;&1313O&..%24411-2444#%OO344443433334%@&izll=$2223%&&@%e02o%&&$$$t9##@&%21313%@&#%",
"4=@=#wldds#&@&szxw+=1113-#%%3<4OOOO43<o&oX1344444323341$@qldli#.2X22#@@=p0..2%@&##pu##@#7221111*&&##",
"%@%%&sssdw&&*dlls&@.1221$&o3<<OXX22134##oO13441<5223132#&addlw$o.o2.@*iz9 %2%#&&&pp&*$2<2&X2212&&@*q",
"@-2@;sssd=@*addd=@#2X222#-444OooX11342&$oX14414<4-1211o@=sssd;$..o.#qzz= %%..#&@ux=@%4<2@$2222o+@wdq",
"-6&@qsyas*&wsasy@&#oooXo%3346oooO1243%&$o1<3165f--1222.&wsass=$%% -pxxq&%%%%%*@wcp@94<4*&-2222 =lz=@",
"5=@*wyaay&qawau*&&%.oooX1116OX%%O144O$@o3<3O1455%o2X2O##auuaw&$$$-kxxy+#%##%%@qxx=.434%@&-oo.2rzz*@&",
"0@&=yyyyw*qqwyw&&&%.o%o22221O%$o144Oo#05<2oX34<2#oooXo#=ayaaq@#&=dllp&&&###$**zcd.1132@&&22.2kxxq@&&",
"*@&;wwwyq=qqqw;@&&$%%.22XO13%$$.3<6oo2<<6$$O<4<-$o.oo.&;wwwa=&&*iddl=&&&#*###dxzwX221#@&&. 9lxxa@*&&",
"&&&qwqqw;*;qqq*&&#$$$%XooX<-&##1<4oo6<4<%&$3444#$.o%o$#qwqww=&&wiusw&&&&&&*&wxxzoo22o&&&$.0zzzl&&&&&",
"&&&qqqqw=**===*@$%##$%o%o<2&&&-<<2$1464-&&-4342&%%%%%#*;qqww&@qawus=@#&&@&#*zzxt ..X%&&@#9pkkzq@&&&&",
"&&*;qwqq#&&===&--&&&#$%%4<%&&*4<4-o6163#&&146>-&$$%%%#*;;;q;&*wqwww#&&&&&%#azzzq$%oo&&&&$utipp&&&&&&",
"&&*=0q=;#&&&&*60@&&&###3<3#&&2<43%O1O1X&&%3164#&$$$%$&*;;;q=&=;;;q=&&&&@0$*llzl#$$%%&&&@quuiiq@&&&&&",
"&&=70=;=&&&&=46@&&#&&&2<4-&&-<4<-.OXXO$&&O1642&####$$&**===*&*==;;*&&&@22@allky@##$#&&&#qwwwu$@&&&&&",
"&%40**=*&&&%<3#&&&&&&0<<3&&&6443%%oooo&&$2143o@&&######=;*=*&&#=*=*&#@97@*sssl;@&###&&@=;qqwq#&&&&@2"
};
