/* XPM */
static char *fbcf41d007d244abbb3c44c02a762402Ygk6Ds8dmx49MXaK[] = {
/* columns rows colors chars-per-pixel */
"31 31 20 1 ",
"  c #EFEFEF",
". c #F9F7E9",
"X c #FFFFEC",
"o c gray94",
"O c #F1F1F1",
"+ c #F4F4F3",
"@ c #F2F2F4",
"# c #F3F2F5",
"$ c gray96",
"% c #F4F4F7",
"& c gray97",
"* c #F8F7F6",
"= c #F8F8F7",
"- c #F6F6F8",
"; c #F7F7F8",
": c #F9F9F9",
"> c #FBFBFB",
", c #FCFCFB",
"< c #FBFBFD",
"1 c #FDFDFD",
/* pixels */
":$$$::$O:1$$$::$$$1$$$::$$$:$$$",
"O:1$$O:1O ::$$O:1$ $1$O$$1:O$1:",
"1OO$:1OO:1$O$::$O$1$O$,:$O$1:O$",
"O:::O$::$O::$$O:1*O::;$$:<$O$::",
":$$:$:$:$:$$::$:$;:$$=-$$$::$$$",
":$$:$:$O::$$$::$O::$$$::$$$:$$$",
"O:1$$O:1$ ::$$O::$ :,$$$:::O$1=",
"1OO$:1OO:1$O$::$O:1$O$::$O$1:O$",
"$::$$O:1$O:1$$$$:$O:::$O$:$O$:-",
"$$$:::$$$:$$:$:$$::$$$:$:$:::$-",
":$$$$:$O::$O$::$$$:$$:=:$$$:$$$",
"O:1$O$:1OO:1$$O:1$O:1$O$$1:O$1-",
"1O$$:1$O:1OO:::$O$1$O$::$O$1:O@",
"O::$O$::$O:1$$$$,$O:1$$+$1:O$1-",
"$$$:$:$$::$$$::$$;:$$$$:$$$:$$-",
":$$:::$$$:$$:$:$@::$$$::$$$:*$$",
"$::$$$:1$O$1$$$$1$O$1$$$$1:O$,-",
"1OO:::O :1$O$::$O$1$O$::$O$1=O#",
"O::$$$:1$O::$$$::$ $1$$$$1$O$,-",
":$$:$$$$::$$$:$$$::$$$:$$$$:=$$",
":$$$::$$$:$$$::$$::$$$$:$$$:$$-",
"O::$$O:1$O::$O$$1$O$::$$:1:O$<-",
":$O:::OO:1OO:::$O$1$O$::$O$,:O@",
"$:1$$O:1$O:1$$$:1$O$1:O$$:=O$,-",
"$$$$:$$O::$$$::$O$::$::$$$$:=+$",
":$$::$$::$$$$::$$::$$$$::$$:=$$",
"$::$$$$1$O::$$$::$O$::$$:::O$:-",
":$O:::$O:1$$$::$O:1$O$::$O$1:O$",
"O:::$O::$O::$$$$1$O$::$$$::O$1-",
":$O:::$$::$$$::$O:1$$$$:$$$:-@.",
":$:$$$:$$$:$$$:$$$:$$$$:$:$---X"
};
